<svg width="78" height="35" viewBox="0 0 78 35" fill="none" xmlns="http://www.w3.org/2000/svg">
<path d="M7.52905 13.6328L8.73999 13.3984V10.6172C8.39103 10.7005 8.00301 10.7656 7.57593 10.8125C7.14884 10.8542 6.76864 10.875 6.4353 10.875C5.03947 10.875 3.95874 10.5729 3.19312 9.96875C2.4327 9.36458 2.05249 8.42969 2.05249 7.16406V5.23438L0.83374 5V3.625H4.32593H5.54468V5L4.32593 5.23438V7.16406C4.32593 7.90365 4.49259 8.41406 4.82593 8.69531C5.15926 8.97656 5.69572 9.11719 6.4353 9.11719C6.75822 9.11719 7.13582 9.09635 7.56812 9.05469C8.00562 9.00781 8.39624 8.94271 8.73999 8.85938V5.23438L7.52905 5V3.625H8.73999H11.0212H12.24V5L11.0212 5.23438V13.3984L12.24 13.6328V15H7.52905V13.6328Z" fill="white"/>
<path d="M22.3319 10H18.4803V13.25H22.1522L22.2537 11.8906H23.9881V15H14.9881V13.6328L16.1991 13.3984V5.23438L14.9881 5V3.625H16.1991H23.9725V6.74219H22.2225L22.1209 5.38281H18.4803V8.24219H22.3319V10ZM22.4569 2.49219H20.3709V0.898438H22.4569V2.49219ZM18.5506 2.49219H16.4647V0.898438H18.5506V2.49219Z" fill="white"/>
<path d="M32.5409 3.625C33.843 3.625 34.8691 3.96094 35.6191 4.63281C36.3743 5.29948 36.7519 6.17448 36.7519 7.25781C36.7519 8.34635 36.3743 9.22135 35.6191 9.88281C34.8691 10.5443 33.843 10.875 32.5409 10.875H30.6191V13.3984L31.8378 13.6328V15H27.1269V13.6328L28.3378 13.3984V5.23438L27.1269 5V3.625H28.3378H32.5409ZM30.6191 9.11719H32.5409C33.1763 9.11719 33.6555 8.94531 33.9784 8.60156C34.3066 8.2526 34.4706 7.8099 34.4706 7.27344C34.4706 6.72656 34.3066 6.27604 33.9784 5.92188C33.6555 5.5625 33.1763 5.38281 32.5409 5.38281H30.6191V9.11719Z" fill="white"/>
<path d="M39.4062 5V3.625H44.1172V5L42.8984 5.23438V8.51562H47.5391V5.23438L46.3203 5V3.625H47.5391H49.8125H51.0312V5L49.8125 5.23438V13.3984L51.0312 13.6328V15H46.3203V13.6328L47.5391 13.3984V10.2734H42.8984V13.3984L44.1172 13.6328V15H39.4062V13.6328L40.6172 13.3984V5.23438L39.4062 5Z" fill="white"/>
<path d="M53.7247 13.6328L54.5372 13.5156L57.9981 3.625H60.3341L63.7716 13.5156L64.5841 13.6328V15H60.7091V13.6328L61.4981 13.4922L60.9981 11.9297H57.3106L56.8106 13.4922L57.5997 13.6328V15H53.7247V13.6328ZM57.8497 10.25H60.4591L59.1778 6.24219H59.1309L57.8497 10.25Z" fill="white"/>
<path d="M77.2462 3.625V5L76.0353 5.23438V13.3984L77.2462 13.6328V15H73.7541V10.7266H72.2541L71.1916 13.1953C70.9103 13.7943 70.5613 14.2578 70.1447 14.5859C69.7332 14.9089 69.2488 15.0703 68.6916 15.0703C68.4259 15.0703 68.1785 15.0365 67.9494 14.9688C67.7254 14.901 67.5223 14.8073 67.34 14.6875L67.6369 12.9688C67.741 13.0052 67.8296 13.0312 67.9025 13.0469C67.9806 13.0573 68.0718 13.0625 68.1759 13.0625C68.3999 13.0625 68.603 13 68.7853 12.875C68.9728 12.7448 69.1681 12.5052 69.3712 12.1562L70.2619 10.2734C69.4754 9.97656 68.8869 9.57292 68.4962 9.0625C68.1056 8.55208 67.9103 7.90365 67.9103 7.11719C67.9103 5.9974 68.2801 5.13542 69.0197 4.53125C69.7593 3.92708 70.7827 3.625 72.09 3.625H76.0353H77.2462ZM70.1837 7.21094C70.1837 7.79427 70.3452 8.25 70.6681 8.57812C70.991 8.90104 71.465 9.0625 72.09 9.0625H73.7541V5.38281H72.09C71.4598 5.38281 70.9832 5.54167 70.6603 5.85938C70.3426 6.17188 70.1837 6.6224 70.1837 7.21094ZM72.5353 15V13.6328L73.7541 13.3984V15H72.5353Z" fill="white"/>
<path d="M8.55937 32.6328L9.77031 32.3984V24.2344L8.55937 24V22.625H13.2078V24L12.0516 24.2344V27.2734H13.075L15.2078 24.2031C15.6609 23.5677 16.062 23.1276 16.4109 22.8828C16.7599 22.638 17.2234 22.5156 17.8016 22.5156C18.0672 22.5156 18.3146 22.5521 18.5437 22.625C18.7729 22.6979 18.9838 22.7943 19.1766 22.9141L18.7937 24.625C18.6271 24.5885 18.5125 24.5651 18.45 24.5547C18.3927 24.5391 18.312 24.5312 18.2078 24.5312C17.9682 24.5312 17.7469 24.599 17.5437 24.7344C17.3406 24.8698 17.0958 25.1224 16.8094 25.4922L15.0281 27.9297L18.1766 32.4375L19.3719 32.6328V34H14.8641V32.6328L15.5125 32.5391L13.3875 29.3438H12.0516V32.3984L13.2078 32.6328V34H8.55937V32.6328Z" fill="white"/>
<path d="M32.0653 28.3984C32.0653 30.0651 31.5887 31.4427 30.6356 32.5312C29.6825 33.6198 28.4351 34.1641 26.8934 34.1641C25.357 34.1641 24.1148 33.6198 23.1669 32.5312C22.2242 31.4427 21.7528 30.0651 21.7528 28.3984V28.2266C21.7528 26.5703 22.2242 25.1953 23.1669 24.1016C24.1096 23.0078 25.3492 22.4609 26.8856 22.4609C28.4273 22.4609 29.6747 23.0078 30.6278 24.1016C31.5861 25.1953 32.0653 26.5703 32.0653 28.2266V28.3984ZM29.7919 28.2109C29.7919 27.0339 29.5471 26.0781 29.0575 25.3438C28.5679 24.6094 27.844 24.2422 26.8856 24.2422C25.9273 24.2422 25.2111 24.6068 24.7372 25.3359C24.2684 26.0651 24.0341 27.0234 24.0341 28.2109V28.3984C24.0341 29.5964 24.271 30.5625 24.745 31.2969C25.2242 32.026 25.9403 32.3906 26.8934 32.3906C27.857 32.3906 28.5809 32.026 29.0653 31.2969C29.5497 30.5625 29.7919 29.5964 29.7919 28.3984V28.2109Z" fill="white"/>
<path d="M44.2197 26.4609H42.5244L42.29 24.9453C42.066 24.7214 41.7822 24.5443 41.4384 24.4141C41.0999 24.2839 40.6988 24.2188 40.2353 24.2188C39.2457 24.2188 38.4827 24.5781 37.9462 25.2969C37.415 26.0156 37.1494 26.9531 37.1494 28.1094V28.5078C37.1494 29.6641 37.415 30.6042 37.9462 31.3281C38.4775 32.0521 39.2275 32.4141 40.1962 32.4141C40.6442 32.4141 41.053 32.349 41.4228 32.2188C41.7978 32.0885 42.0869 31.9115 42.29 31.6875L42.5244 30.1719H44.2197V32.4219C43.7613 32.9531 43.1754 33.3776 42.4619 33.6953C41.7535 34.0078 40.9593 34.1641 40.0791 34.1641C38.553 34.1641 37.303 33.6354 36.3291 32.5781C35.3551 31.5208 34.8681 30.1641 34.8681 28.5078V28.125C34.8681 26.474 35.3525 25.1172 36.3212 24.0547C37.29 22.9922 38.5426 22.4609 40.0791 22.4609C40.9593 22.4609 41.7535 22.6224 42.4619 22.9453C43.1702 23.263 43.7561 23.6849 44.2197 24.2109V26.4609Z" fill="white"/>
<path d="M56.9756 22.625V25.6562H55.2256L55.1319 24.3828H53.0381V32.3984L54.2569 32.6328V34H49.5381V32.6328L50.7569 32.3984V24.3828H48.6709L48.5772 25.6562H46.835V22.625H56.9756Z" fill="white"/>
<path d="M63.3566 22.625V26.8359H65.3097C66.6274 26.8359 67.6691 27.1589 68.4347 27.8047C69.2003 28.4453 69.5831 29.3021 69.5831 30.375C69.5831 31.4635 69.1977 32.3411 68.4269 33.0078C67.656 33.6693 66.617 34 65.3097 34H59.8566V32.6328L61.0753 32.3984V24.2344L59.8566 24V22.625H61.0753H63.3566ZM63.3566 28.5938V32.25H65.3097C65.9503 32.25 66.4425 32.0729 66.7862 31.7188C67.1352 31.3594 67.3097 30.9062 67.3097 30.3594C67.3097 29.8385 67.1378 29.4141 66.7941 29.0859C66.4503 28.7578 65.9555 28.5938 65.3097 28.5938H63.3566ZM64.5753 22.625V24L63.3566 24.2344V22.625H64.5753Z" fill="white"/>
</svg>
