<svg width="40" height="40" viewBox="0 0 40 40" fill="none" xmlns="http://www.w3.org/2000/svg">
<circle cx="20" cy="20" r="20" fill="white"/>
<g clip-path="url(#clip0)">
<path d="M11.2001 11.2C10.3161 11.2 9.6001 11.916 9.6001 12.8V13.6V16V28.8H20.9376L22.5376 27.2H11.2001V16H28.8001V21.1109C29.1657 20.9157 29.5706 20.8 29.997 20.8C30.1338 20.8 30.2681 20.8183 30.4001 20.8391V15.2V12.8C30.4001 11.916 29.6841 11.2 28.8001 11.2H11.2001ZM14.4001 18.4C14.1879 18.4 13.9844 18.4843 13.8344 18.6343C13.6844 18.7844 13.6001 18.9878 13.6001 19.2C13.6001 19.4122 13.6844 19.6157 13.8344 19.7657C13.9844 19.9157 14.1879 20 14.4001 20C14.6123 20 14.8158 19.9157 14.9658 19.7657C15.1158 19.6157 15.2001 19.4122 15.2001 19.2C15.2001 18.9878 15.1158 18.7844 14.9658 18.6343C14.8158 18.4843 14.6123 18.4 14.4001 18.4V18.4ZM17.6001 18.4C17.1585 18.4 16.8001 18.7584 16.8001 19.2C16.8001 19.6416 17.1585 20 17.6001 20H24.8001C25.2417 20 25.6001 19.6416 25.6001 19.2C25.6001 18.7584 25.2417 18.4 24.8001 18.4H17.6001ZM14.4001 21.6C14.1879 21.6 13.9844 21.6843 13.8344 21.8343C13.6844 21.9844 13.6001 22.1878 13.6001 22.4C13.6001 22.6122 13.6844 22.8157 13.8344 22.9657C13.9844 23.1157 14.1879 23.2 14.4001 23.2C14.6123 23.2 14.8158 23.1157 14.9658 22.9657C15.1158 22.8157 15.2001 22.6122 15.2001 22.4C15.2001 22.1878 15.1158 21.9844 14.9658 21.8343C14.8158 21.6843 14.6123 21.6 14.4001 21.6V21.6ZM17.6001 21.6C17.1585 21.6 16.8001 21.9584 16.8001 22.4C16.8001 22.8416 17.1585 23.2 17.6001 23.2H24.8001C25.2417 23.2 25.6001 22.8416 25.6001 22.4C25.6001 21.9584 25.2417 21.6 24.8001 21.6H17.6001ZM29.997 22.4C29.7514 22.4 29.5064 22.4937 29.3188 22.6813L28.6407 23.3594L31.0407 25.7594L31.7188 25.0813C32.094 24.7061 32.094 24.0986 31.7188 23.7234L30.6767 22.6813C30.4891 22.4937 30.2426 22.4 29.997 22.4ZM27.6798 24.3203L23.8407 28.1594L24.5595 28.4L24.8001 29.6L26.0001 29.8406L26.2407 30.5594L30.0798 26.7203L27.6798 24.3203ZM30.4001 28.6625L30.2626 28.8H30.4001V28.6625ZM22.9532 30.1531L22.4204 31.6641C22.4199 31.6651 22.4194 31.6662 22.4188 31.6672V31.6688C22.4068 31.6975 22.4004 31.7282 22.4001 31.7594C22.4 31.791 22.4062 31.8223 22.4182 31.8516C22.4303 31.8808 22.448 31.9074 22.4704 31.9297C22.4928 31.9521 22.5193 31.9698 22.5485 31.9819C22.5778 31.9939 22.6091 32.0001 22.6407 32C22.6696 31.9999 22.6981 31.9946 22.7251 31.9844H22.7267L24.247 31.4469L22.9532 30.1531Z" fill="black"/>
</g>
<defs>
<clipPath id="clip0">
<rect width="24" height="24" fill="white" transform="translate(8 8)"/>
</clipPath>
</defs>
</svg>
